<svg 
    xmlns="http://www.w3.org/2000/svg" 
    width="24" 
    height="24" 
    viewBox="0 0 24 24" 
    fill="none">
    <path 
        d="M1.22963 12C2.26359 13.309 6.69331 18.5 11.8729 18.5C17.053 18.5 21.4827 13.309 22.5167 12C21.4827 10.691 17.053 5.5 11.8729 5.5C6.69331 5.5 2.26359 10.691 1.22963 12ZM11.8729 19.5C5.47763 19.5 0.424899 12.5905 0.213307 12.2965L-0.000244141 12L0.213307 11.7035C0.424899 11.4095 5.47763 4.5 11.8729 4.5C18.2687 4.5 23.3214 11.4095 23.533 11.7035L23.7465 12L23.533 12.2965C23.3214 12.5905 18.2687 19.5 11.8729 19.5Z" 
        fill="#363B42"/>
    <path 
        d="M11.8732 9C10.2525 9 8.93443 10.346 8.93443 12C8.93443 13.654 10.2525 15 11.8732 15C13.4939 15 14.812 13.654 14.812 12C14.812 10.346 13.4939 9 11.8732 9ZM11.8732 16C9.71271 16 7.95483 14.2055 7.95483 12C7.95483 9.7945 9.71271 8 11.8732 8C14.0337 8 15.7916 9.7945 15.7916 12C15.7916 14.2055 14.0337 16 11.8732 16Z" 
        fill="#363B42"/>
</svg>