<svg 
    xmlns="http://www.w3.org/2000/svg" 
    width="24" 
    height="24" 
    viewBox="0 0 24 24" 
    fill="none">
    <path 
        d="M7.83554 14.8145C7.19529 13.9498 6.87218 12.8595 6.92814 11.7527C6.98411 10.6458 7.4152 9.60032 8.13879 8.81656C8.86238 8.03279 9.82754 7.56593 10.8492 7.50548C11.871 7.44503 12.8773 7.79524 13.6754 8.48898L16.2988 5.64648C16.0898 5.54172 15.8777 5.4445 15.6628 5.35498C14.3691 4.81298 12.8931 4.49998 11.0769 4.49998C7.98785 4.49998 5.38154 5.67498 3.408 7.64598C1.91077 9.14098 0.923077 11.0345 0.923077 12C0.923077 13.306 2.65615 16.2685 5.01138 17.874L7.836 14.8145H7.83554ZM8.49323 14.102L13.0177 9.20148C12.3956 8.69483 11.6256 8.4485 10.8492 8.50777C10.0728 8.56705 9.3423 8.92794 8.79194 9.52411C8.24157 10.1203 7.90836 10.9116 7.85357 11.7527C7.79877 12.5938 8.02562 13.428 8.49323 14.102ZM16.9911 4.89598L20.4517 1.14598C20.5383 1.05216 20.6558 0.999451 20.7782 0.999451C20.9007 0.999451 21.0182 1.05216 21.1048 1.14598C21.1914 1.2398 21.24 1.36705 21.24 1.49973C21.24 1.63241 21.1914 1.75966 21.1048 1.85348L14.1508 9.38848L8.66492 15.33L1.72015 22.8535C1.6773 22.8999 1.62642 22.9368 1.57043 22.9619C1.51443 22.9871 1.4544 23.0001 1.39378 23.0001C1.33316 23.0001 1.27312 22.9872 1.21711 22.9621C1.16109 22.937 1.11019 22.9002 1.06731 22.8537C1.02443 22.8073 0.990405 22.7522 0.967186 22.6915C0.943967 22.6309 0.932005 22.5658 0.931983 22.5002C0.931962 22.4345 0.943881 22.3694 0.967061 22.3088C0.99024 22.2481 1.02423 22.1929 1.06708 22.1465L4.34354 18.5975C1.82308 16.793 0 13.631 0 12C0 10.7115 1.11277 8.57698 2.78262 6.90998C4.92185 4.77498 7.74877 3.49998 11.0769 3.49998C13.0098 3.49998 14.5985 3.83648 15.9955 4.42248C16.3555 4.57348 16.6278 4.70448 16.9911 4.89598ZM22.1534 12.016C22.1442 13.3065 21.0342 15.43 19.3712 17.0895C17.232 19.225 14.4051 20.5 11.0769 20.5C9.89538 20.5 8.65569 20.316 7.71369 19.992C7.65499 19.973 7.60038 19.9415 7.55302 19.8994C7.50567 19.8573 7.46653 19.8054 7.43789 19.7467C7.40925 19.688 7.39168 19.6238 7.3862 19.5576C7.38072 19.4915 7.38744 19.4249 7.40598 19.3617C7.42451 19.2984 7.45449 19.2398 7.49416 19.1892C7.53382 19.1386 7.58239 19.0971 7.63702 19.0671C7.69166 19.037 7.75126 19.0191 7.81237 19.0142C7.87347 19.0094 7.93485 19.0178 7.99292 19.039C8.83892 19.33 9.98492 19.5 11.0769 19.5C14.166 19.5 16.7723 18.325 18.7458 16.3545C20.2431 14.8595 21.2308 12.966 21.2308 12V11.9875C21.2238 11.0065 20.4032 9.26348 19.0638 7.86048C19.02 7.81491 18.9849 7.76042 18.9605 7.70012C18.9362 7.63982 18.9231 7.57491 18.9219 7.5091C18.9208 7.44329 18.9316 7.37789 18.9539 7.31664C18.9761 7.25539 19.0093 7.1995 19.0515 7.15218C19.0938 7.10485 19.1442 7.06703 19.1999 7.04087C19.2557 7.01471 19.3157 7.00073 19.3764 6.99974C19.4372 6.99874 19.4975 7.01075 19.5539 7.03507C19.6104 7.0594 19.6619 7.09556 19.7054 7.14148C21.2169 8.72498 22.1538 10.7215 22.1538 12V12.0165L22.1534 12.016ZM14.3086 11.969C14.3119 11.903 14.3271 11.8384 14.3535 11.7789C14.38 11.7193 14.417 11.666 14.4625 11.6221C14.5081 11.5782 14.5612 11.5445 14.6188 11.5229C14.6765 11.5013 14.7375 11.4924 14.7984 11.4965C14.8592 11.5006 14.9187 11.5178 14.9734 11.5469C15.0281 11.5761 15.0769 11.6168 15.1171 11.6665C15.1572 11.7163 15.1878 11.7741 15.2072 11.8368C15.2265 11.8994 15.2342 11.9656 15.2298 12.0315C15.1628 13.1926 14.7067 14.2873 13.9473 15.1099C13.1879 15.9325 12.1774 16.4265 11.1055 16.499C10.9843 16.5055 10.8655 16.46 10.775 16.3723C10.6845 16.2847 10.6295 16.1619 10.622 16.0306C10.6144 15.8993 10.655 15.7701 10.7348 15.671C10.8146 15.5718 10.9272 15.5108 11.0483 15.501C11.8956 15.4436 12.6945 15.053 13.2948 14.4027C13.8951 13.7523 14.2556 12.8869 14.3086 11.969Z" 
        fill="#2A73CC"
        stroke="#2A73CC"
        stroke-width="0.5"/>
</svg>